<svg width="150" height="41" viewBox="0 0 150 41" fill="none" xmlns="http://www.w3.org/2000/svg">
<path d="M149.21 34.119C149.21 37.914 146.68 40.004 142.06 40.004H120.61C115.99 40.004 113.46 37.474 113.46 32.854V25.649C113.46 20.424 116.54 18.499 121.6 19.709L127.54 21.139C128.585 21.414 129.08 21.084 129.135 20.589C129.19 20.039 128.97 19.709 128.035 19.489L119.345 17.344C115.275 16.354 113.46 13.934 113.46 9.919V8.654C113.46 4.089 115.99 1.504 120.61 1.504H142.06C146.68 1.504 149.21 3.594 149.21 7.389C149.21 11.184 146.68 13.274 142.06 13.274H133.15C132.71 13.274 132.38 13.604 132.38 14.044V14.099C132.38 14.539 132.71 14.869 133.15 14.869H142.06C146.68 14.869 149.21 16.959 149.21 20.754C149.21 24.549 146.68 26.639 142.06 26.639H133.15C132.71 26.639 132.38 27.024 132.38 27.464C132.38 27.904 132.71 28.234 133.15 28.234H142.06C146.68 28.234 149.21 30.269 149.21 34.119Z" fill="white"/>
<path d="M73.0223 32.854V8.654C73.0223 4.034 75.5523 1.504 80.1723 1.504H100.302C106.462 1.504 110.972 5.354 110.972 10.689C110.972 16.024 106.572 20.094 100.522 20.094H97.1673C96.7273 20.094 96.3973 20.424 96.3973 20.864V20.974C96.3973 21.414 96.7273 21.744 97.1673 21.744H100.907C104.977 21.744 107.727 23.339 109.212 27.024L111.522 32.854C113.227 37.144 110.642 40.004 106.022 40.004H102.172C98.6523 40.004 96.0673 38.134 94.7473 34.119L92.4373 27.024C92.3273 26.749 92.0523 26.529 91.7773 26.529C91.1723 26.529 90.7873 27.024 91.0073 27.684L92.3823 31.864C94.0323 36.814 91.6673 40.004 86.4423 40.004H80.1723C75.5523 40.004 73.0223 37.474 73.0223 32.854ZM90.6223 12.174V17.674C90.6223 18.114 90.9523 18.444 91.3923 18.444H91.5023C91.9423 18.444 92.2723 18.114 92.2723 17.674V12.174C92.2723 11.734 91.9423 11.404 91.5023 11.404H91.3923C90.9523 11.404 90.6223 11.734 90.6223 12.174Z" fill="white"/>
<path d="M50.4328 40.554C38.8278 40.554 30.3028 32.359 30.3028 20.754C30.3028 9.14899 38.8278 0.953995 50.4328 0.953995C62.0378 0.953995 70.5628 9.14899 70.5628 20.754C70.5628 32.359 62.0378 40.554 50.4328 40.554ZM49.6078 12.174V29.334C49.6078 29.774 49.9378 30.104 50.3778 30.104H50.4878C50.9278 30.104 51.2578 29.774 51.2578 29.334V12.174C51.2578 11.734 50.9278 11.404 50.4878 11.404H50.3778C49.9378 11.404 49.6078 11.734 49.6078 12.174Z" fill="white"/>
<path d="M31.374 33.239C31.374 37.584 28.844 40.004 24.224 40.004H7.394C2.774 40.004 0.243996 37.474 0.243996 32.854V8.654C0.243996 4.034 2.774 1.504 7.394 1.504H10.694C15.314 1.504 17.844 4.034 17.844 8.654V25.759C17.844 26.199 18.174 26.529 18.614 26.529H24.224C28.844 26.529 31.374 28.894 31.374 33.239Z" fill="white"/>
</svg>
