<svg width="164" height="53" viewBox="0 0 164 53" fill="none" xmlns="http://www.w3.org/2000/svg">
<path d="M132.891 19.454H113.751C112.486 19.454 111.496 18.519 111.496 17.254C111.496 15.989 112.486 15.054 113.751 15.054H132.891C134.211 15.054 135.146 15.989 135.146 17.254C135.146 18.519 134.211 19.454 132.891 19.454ZM135.641 24.954H111.001C109.736 24.954 108.746 24.019 108.746 22.754C108.746 21.489 109.736 20.554 111.001 20.554H135.641C136.961 20.554 137.896 21.489 137.896 22.754C137.896 24.019 136.961 24.954 135.641 24.954ZM116.391 30.454H111.001C109.736 30.454 108.746 29.519 108.746 28.254C108.746 26.989 109.736 26.054 111.001 26.054H116.391C117.711 26.054 118.646 26.989 118.646 28.254C118.646 29.519 117.711 30.454 116.391 30.454ZM132.891 35.954H111.001C109.736 35.954 108.746 35.019 108.746 33.754C108.746 32.489 109.736 31.554 111.001 31.554H132.891C134.211 31.554 135.146 32.489 135.146 33.754C135.146 35.019 134.211 35.954 132.891 35.954ZM116.391 41.454H111.001C109.736 41.454 108.746 40.519 108.746 39.254C108.746 37.989 109.736 37.054 111.001 37.054H116.391C117.711 37.054 118.646 37.989 118.646 39.254C118.646 40.519 117.711 41.454 116.391 41.454ZM135.641 46.954H111.001C109.736 46.954 108.746 46.019 108.746 44.754C108.746 43.489 109.736 42.554 111.001 42.554H135.641C136.961 42.554 137.896 43.489 137.896 44.754C137.896 46.019 136.961 46.954 135.641 46.954ZM132.891 52.454H113.751C112.486 52.454 111.496 51.519 111.496 50.254C111.496 48.989 112.486 48.054 113.751 48.054H132.891C134.211 48.054 135.146 48.989 135.146 50.254C135.146 51.519 134.211 52.454 132.891 52.454Z" fill="white"/>
<path d="M97.6669 19.454H75.7769C74.5119 19.454 73.5219 18.519 73.5219 17.254C73.5219 15.989 74.5119 15.054 75.7769 15.054H97.6669C98.9869 15.054 99.9219 15.989 99.9219 17.254C99.9219 18.519 98.9869 19.454 97.6669 19.454ZM100.417 24.954H73.0269C71.7619 24.954 70.7719 24.019 70.7719 22.754C70.7719 21.489 71.7619 20.554 73.0269 20.554H100.417C101.737 20.554 102.672 21.489 102.672 22.754C102.672 24.019 101.737 24.954 100.417 24.954ZM78.4169 30.454H73.0269C71.7619 30.454 70.7719 29.519 70.7719 28.254C70.7719 26.989 71.7619 26.054 73.0269 26.054H78.4169C79.7369 26.054 80.6719 26.989 80.6719 28.254C80.6719 29.519 79.7369 30.454 78.4169 30.454ZM100.417 30.454H95.0269C93.7619 30.454 92.7719 29.519 92.7719 28.254C92.7719 26.989 93.7619 26.054 95.0269 26.054H100.417C101.737 26.054 102.672 26.989 102.672 28.254C102.672 29.519 101.737 30.454 100.417 30.454ZM97.6669 35.954H73.0269C71.7619 35.954 70.7719 35.019 70.7719 33.754C70.7719 32.489 71.7619 31.554 73.0269 31.554H97.6669C98.9869 31.554 99.9219 32.489 99.9219 33.754C99.9219 35.019 98.9869 35.954 97.6669 35.954ZM78.4169 41.454H73.0269C71.7619 41.454 70.7719 40.519 70.7719 39.254C70.7719 37.989 71.7619 37.054 73.0269 37.054H78.4169C79.7369 37.054 80.6719 37.989 80.6719 39.254C80.6719 40.519 79.7369 41.454 78.4169 41.454ZM94.9169 41.454H89.5269C88.2619 41.454 87.2719 40.519 87.2719 39.254C87.2719 37.989 88.2619 37.054 89.5269 37.054H94.9169C96.2369 37.054 97.1719 37.989 97.1719 39.254C97.1719 40.519 96.2369 41.454 94.9169 41.454ZM78.4169 46.954H73.0269C71.7619 46.954 70.7719 46.019 70.7719 44.754C70.7719 43.489 71.7619 42.554 73.0269 42.554H78.4169C79.7369 42.554 80.6719 43.489 80.6719 44.754C80.6719 46.019 79.7369 46.954 78.4169 46.954ZM97.6669 46.954H92.2769C91.0119 46.954 90.0219 46.019 90.0219 44.754C90.0219 43.489 91.0119 42.554 92.2769 42.554H97.6669C98.9869 42.554 99.9219 43.489 99.9219 44.754C99.9219 46.019 98.9869 46.954 97.6669 46.954ZM78.4169 52.454H73.0269C71.7619 52.454 70.7719 51.519 70.7719 50.254C70.7719 48.989 71.7619 48.054 73.0269 48.054H78.4169C79.7369 48.054 80.6719 48.989 80.6719 50.254C80.6719 51.519 79.7369 52.454 78.4169 52.454ZM100.417 52.454H95.0269C93.7619 52.454 92.7719 51.519 92.7719 50.254C92.7719 48.989 93.7619 48.054 95.0269 48.054H100.417C101.737 48.054 102.672 48.989 102.672 50.254C102.672 51.519 101.737 52.454 100.417 52.454Z" fill="white"/>
<path d="M56.4062 19.454H40.0162C38.7512 19.454 37.7612 18.519 37.7612 17.254C37.7612 15.989 38.7512 15.054 40.0162 15.054H56.4062C57.7262 15.054 58.6612 15.989 58.6612 17.254C58.6612 18.519 57.7262 19.454 56.4062 19.454ZM59.1562 24.954H37.2662C36.0012 24.954 35.0112 24.019 35.0112 22.754C35.0112 21.489 36.0012 20.554 37.2662 20.554H59.1562C60.4762 20.554 61.4112 21.489 61.4112 22.754C61.4112 24.019 60.4762 24.954 59.1562 24.954ZM39.9062 30.454H34.5162C33.2512 30.454 32.2612 29.519 32.2612 28.254C32.2612 26.989 33.2512 26.054 34.5162 26.054H39.9062C41.2262 26.054 42.1612 26.989 42.1612 28.254C42.1612 29.519 41.2262 30.454 39.9062 30.454ZM61.9062 30.454H56.5162C55.2512 30.454 54.2612 29.519 54.2612 28.254C54.2612 26.989 55.2512 26.054 56.5162 26.054H61.9062C63.2262 26.054 64.1612 26.989 64.1612 28.254C64.1612 29.519 63.2262 30.454 61.9062 30.454ZM37.1562 35.954H31.7662C30.5012 35.954 29.5112 35.019 29.5112 33.754C29.5112 32.489 30.5012 31.554 31.7662 31.554H37.1562C38.4762 31.554 39.4112 32.489 39.4112 33.754C39.4112 35.019 38.4762 35.954 37.1562 35.954ZM64.6562 35.954H59.2662C58.0012 35.954 57.0112 35.019 57.0112 33.754C57.0112 32.489 58.0012 31.554 59.2662 31.554H64.6562C65.9762 31.554 66.9112 32.489 66.9112 33.754C66.9112 35.019 65.9762 35.954 64.6562 35.954ZM39.9062 41.454H34.5162C33.2512 41.454 32.2612 40.519 32.2612 39.254C32.2612 37.989 33.2512 37.054 34.5162 37.054H39.9062C41.2262 37.054 42.1612 37.989 42.1612 39.254C42.1612 40.519 41.2262 41.454 39.9062 41.454ZM61.9062 41.454H56.5162C55.2512 41.454 54.2612 40.519 54.2612 39.254C54.2612 37.989 55.2512 37.054 56.5162 37.054H61.9062C63.2262 37.054 64.1612 37.989 64.1612 39.254C64.1612 40.519 63.2262 41.454 61.9062 41.454ZM59.1562 46.954H37.2662C36.0012 46.954 35.0112 46.019 35.0112 44.754C35.0112 43.489 36.0012 42.554 37.2662 42.554H59.1562C60.4762 42.554 61.4112 43.489 61.4112 44.754C61.4112 46.019 60.4762 46.954 59.1562 46.954ZM56.4062 52.454H40.0162C38.7512 52.454 37.7612 51.519 37.7612 50.254C37.7612 48.989 38.7512 48.054 40.0162 48.054H56.4062C57.7262 48.054 58.6612 48.989 58.6612 50.254C58.6612 51.519 57.7262 52.454 56.4062 52.454Z" fill="white"/>
<path d="M8.539 19.454H3.149C1.884 19.454 0.893997 18.519 0.893997 17.254C0.893997 15.989 1.884 15.054 3.149 15.054H8.539C9.859 15.054 10.794 15.989 10.794 17.254C10.794 18.519 9.859 19.454 8.539 19.454ZM8.539 24.954H3.149C1.884 24.954 0.893997 24.019 0.893997 22.754C0.893997 21.489 1.884 20.554 3.149 20.554H8.539C9.859 20.554 10.794 21.489 10.794 22.754C10.794 24.019 9.859 24.954 8.539 24.954ZM8.539 30.454H3.149C1.884 30.454 0.893997 29.519 0.893997 28.254C0.893997 26.989 1.884 26.054 3.149 26.054H8.539C9.859 26.054 10.794 26.989 10.794 28.254C10.794 29.519 9.859 30.454 8.539 30.454ZM8.539 35.954H3.149C1.884 35.954 0.893997 35.019 0.893997 33.754C0.893997 32.489 1.884 31.554 3.149 31.554H8.539C9.859 31.554 10.794 32.489 10.794 33.754C10.794 35.019 9.859 35.954 8.539 35.954ZM8.539 41.454H3.149C1.884 41.454 0.893997 40.519 0.893997 39.254C0.893997 37.989 1.884 37.054 3.149 37.054H8.539C9.859 37.054 10.794 37.989 10.794 39.254C10.794 40.519 9.859 41.454 8.539 41.454ZM27.789 46.954H3.149C1.884 46.954 0.893997 46.019 0.893997 44.754C0.893997 43.489 1.884 42.554 3.149 42.554H27.789C29.109 42.554 30.044 43.489 30.044 44.754C30.044 46.019 29.109 46.954 27.789 46.954ZM25.039 52.454H5.899C4.634 52.454 3.644 51.519 3.644 50.254C3.644 48.989 4.634 48.054 5.899 48.054H25.039C26.359 48.054 27.294 48.989 27.294 50.254C27.294 51.519 26.359 52.454 25.039 52.454Z" fill="white"/>
<path d="M151.575 0.00115818C150.592 0.0014693 149.812 0.828656 149.87 1.80979V1.80979C149.957 3.30552 148.214 4.18164 147.066 3.21934L146.88 3.06341C146.116 2.42354 144.979 2.51934 144.334 3.27798L143.268 4.52958C142.627 5.2824 142.787 6.4258 143.61 6.9739V6.9739C144.858 7.80497 144.441 9.73444 142.962 9.9773L142.818 10.0011C141.837 10.1621 141.2 11.1234 141.434 12.0896L141.783 13.5311C142.017 14.4967 142.997 15.0827 143.958 14.8312L144.247 14.7556C145.672 14.3828 146.836 15.9201 146.091 17.1906V17.1906C145.593 18.0385 145.941 19.1306 146.838 19.5339L148.451 20.2595C149.359 20.6679 150.426 20.2595 150.83 19.3497V19.3497C151.462 17.927 153.482 17.9263 154.113 19.3496V19.3496C154.517 20.2596 155.583 20.6678 156.491 20.2595L158.099 19.5364C159 19.1312 159.352 18.0353 158.855 17.1816V17.1816C158.109 15.8986 159.288 14.3542 160.722 14.7366L161.018 14.8155C161.989 15.0743 162.983 14.4842 163.22 13.508L163.565 12.0891C163.8 11.1225 163.162 10.1603 162.181 9.99925L162.028 9.97419C160.551 9.7319 160.136 7.80558 161.382 6.97623V6.97623C162.206 6.42711 162.364 5.2796 161.717 4.52892L160.66 3.30198C160.013 2.55057 158.883 2.45552 158.119 3.08819L157.935 3.24116C156.779 4.19846 155.038 3.31619 155.126 1.81816V1.81816C155.185 0.831955 154.4 0.000263817 153.412 0.000576549L151.575 0.00115818Z" fill="white"/>
</svg>
