<svg width="198" height="49" viewBox="0 0 198 49" fill="none" xmlns="http://www.w3.org/2000/svg">
<path d="M172.55 42L175.3 21.76L172.55 3.49999H195.705L196.97 10.65L180.58 5.25999L178.105 20.66L192.02 18.68L193.45 25.06L178.16 22.475L180.58 40.24L197.52 34.025L196.31 42H172.55Z" fill="white"/>
<path d="M169.199 42H161.114L154.459 25.445C153.469 25.555 152.424 25.61 151.324 25.61H146.539L148.904 42H140.324L143.129 21.76L140.324 3.49999H153.744C161.719 3.49999 166.394 7.84499 166.394 14.555C166.394 19.945 163.314 23.465 157.814 24.895L169.199 42ZM150.224 23.135C156.604 22.86 160.344 19.725 160.344 14.555C160.344 9.10999 156.604 5.97499 150.224 5.97499H148.024L146.099 21.76L146.264 23.135H150.224Z" fill="white"/>
<path d="M117.704 42.88C107.419 42.88 99.1145 34.63 99.1145 22.475C99.1145 11.255 107.474 3.00499 117.814 2.95C128.209 2.895 136.459 11.145 136.459 22.475C136.459 34.685 128.154 42.935 117.704 42.88ZM119.079 41.56C125.459 38.315 129.749 30.615 129.749 22.475C129.749 12.575 124.249 5.03999 116.274 4.54499C110.004 7.24 105.824 14.83 105.824 22.475C105.824 33.2 111.214 40.9 119.079 41.56Z" fill="white"/>
<path d="M74.85 42L77.655 21.76L74.85 3.49999H83.43L80.625 21.76L83.21 40.24L99.655 34.025L98.445 42H74.85Z" fill="white"/>
<path d="M20.046 0L20.8 13.3L10.491 4.4L2.79099 13.72L14.074 21.464L0.406006 23.776L3.11398 35.296L16.346 31.73L9.72598 43.353L20.792 48.482L26.118 36.131L31.432 48.482L42.501 43.353L35.878 31.624L49.232 35.292L51.949 23.772L38.272 21.46L49.561 13.716L41.852 4.496L31.541 13.296L32.304 -0.0039978L20.046 0Z" fill="white"/>
</svg>
